{
  "accessors": [
    {
      "bufferView": 2,
      "componentType": 5126,
      "count": 728,
      "max": [
        18.529096603393555,
        9.695528984069824,
        28.538339614868164
      ],
      "min": [
        -18.547576904296875,
        -10.011544227600098,
        -8.538331985473633
      ],
      "type": "VEC3"
    },
    {
      "bufferView": 2,
      "byteOffset": 8736,
      "componentType": 5126,
      "count": 728,
      "max": [
        0.9991150498390198,
        1.0,
        0.9991150498390198
      ],
      "min": [
        -0.9991150498390198,
        -1.0,
        -0.9991150498390198
      ],
      "type": "VEC3"
    },
    {
      "bufferView": 3,
      "componentType": 5126,
      "count": 728,
      "max": [
        1.0,
        0.9999942183494568,
        1.0,
        1.0
      ],
      "min": [
        -1.0,
        -0.9999865293502808,
        -0.997895359992981,
        1.0
      ],
      "type": "VEC4"
    },
    {
      "bufferView": 1,
      "componentType": 5126,
      "count": 728,
      "max": [
        0.8353854417800903,
        0.7980061769485474
      ],
      "min": [
        0.675917387008667,
        0.6854153871536255
      ],
      "type": "VEC2"
    },
    {
      "bufferView": 0,
      "componentType": 5125,
      "count": 2352,
      "type": "SCALAR"
    },
    {
      "bufferView": 2,
      "byteOffset": 17472,
      "componentType": 5126,
      "count": 286,
      "max": [
        40.0,
        40.00000762939453,
        115.73905181884766
      ],
      "min": [
        -40.0,
        -40.00000762939453,
        72.08419036865234
      ],
      "type": "VEC3"
    },
    {
      "bufferView": 2,
      "byteOffset": 20904,
      "componentType": 5126,
      "count": 286,
      "max": [
        0.9999743103981018,
        0.9999998807907104,
        1.0
      ],
      "min": [
        -0.9999743103981018,
        -0.9999998807907104,
        -1.0
      ],
      "type": "VEC3"
    },
    {
      "bufferView": 3,
      "byteOffset": 11648,
      "componentType": 5126,
      "count": 286,
      "max": [
        1.0,
        1.0,
        0.9999969005584717,
        1.0
      ],
      "min": [
        -1.0,
        -1.0,
        -0.9999969005584717,
        1.0
      ],
      "type": "VEC4"
    },
    {
      "bufferView": 1,
      "byteOffset": 5824,
      "componentType": 5126,
      "count": 286,
      "max": [
        0.9961975812911987,
        0.6427775025367737
      ],
      "min": [
        0.5322253704071045,
        0.23230062425136566
      ],
      "type": "VEC2"
    },
    {
      "bufferView": 0,
      "byteOffset": 9408,
      "componentType": 5125,
      "count": 684,
      "type": "SCALAR"
    },
    {
      "bufferView": 2,
      "byteOffset": 24336,
      "componentType": 5126,
      "count": 91,
      "max": [
        19.483537673950195,
        19.483348846435547,
        23.375539779663086
      ],
      "min": [
        -19.48339080810547,
        -19.48349380493164,
        0.0
      ],
      "type": "VEC3"
    },
    {
      "bufferView": 2,
      "byteOffset": 25428,
      "componentType": 5126,
      "count": 91,
      "max": [
        1.0,
        1.0,
        1.0
      ],
      "min": [
        -1.0,
        -1.0,
        -1.0
      ],
      "type": "VEC3"
    },
    {
      "bufferView": 3,
      "byteOffset": 16224,
      "componentType": 5126,
      "count": 91,
      "max": [
        0.9534600973129272,
        0.927189290523529,
        1.0,
        1.0
      ],
      "min": [
        -0.9271875619888306,
        -0.37461477518081665,
        -0.9900497198104858,
        1.0
      ],
      "type": "VEC4"
    },
    {
      "bufferView": 1,
      "byteOffset": 8112,
      "componentType": 5126,
      "count": 91,
      "max": [
        0.5017663240432739,
        0.5583148002624512
      ],
      "min": [
        0.2555214464664459,
        0.4421577453613281
      ],
      "type": "VEC2"
    },
    {
      "bufferView": 0,
      "byteOffset": 12144,
      "componentType": 5125,
      "count": 378,
      "type": "SCALAR"
    },
    {
      "bufferView": 2,
      "byteOffset": 26520,
      "componentType": 5126,
      "count": 608,
      "max": [
        37.30292510986328,
        20.407888412475586,
        141.97950744628906
      ],
      "min": [
        -66.8568344116211,
        -83.7519302368164,
        -2.5799999237060547
      ],
      "type": "VEC3"
    },
    {
      "bufferView": 2,
      "byteOffset": 33816,
      "componentType": 5126,
      "count": 608,
      "max": [
        0.9996920228004456,
        0.9996920228004456,
        0.9795777797698975
      ],
      "min": [
        -0.9996920228004456,
        -0.9996919631958008,
        -0.9996666312217712
      ],
      "type": "VEC3"
    },
    {
      "bufferView": 3,
      "byteOffset": 17680,
      "componentType": 5126,
      "count": 608,
      "max": [
        1.0,
        1.0,
        0.999873161315918,
        1.0
      ],
      "min": [
        -1.0,
        -0.7071025371551514,
        -0.9998735189437866,
        1.0
      ],
      "type": "VEC4"
    },
    {
      "bufferView": 1,
      "byteOffset": 8840,
      "componentType": 5126,
      "count": 608,
      "max": [
        0.9978468418121338,
        0.9982830882072449
      ],
      "min": [
        0.6472028493881226,
        0.4896399676799774
      ],
      "type": "VEC2"
    },
    {
      "bufferView": 0,
      "byteOffset": 13656,
      "componentType": 5125,
      "count": 2376,
      "type": "SCALAR"
    },
    {
      "bufferView": 2,
      "byteOffset": 41112,
      "componentType": 5126,
      "count": 20,
      "max": [
        26.529586791992188,
        26.710773468017578,
        73.08883666992188
      ],
      "min": [
        -25.22031021118164,
        -25.401487350463867,
        -1.1740494966506958
      ],
      "type": "VEC3"
    },
    {
      "bufferView": 2,
      "byteOffset": 41352,
      "componentType": 5126,
      "count": 20,
      "max": [
        0.9927823543548584,
        0.9924908876419067,
        -0.11993063986301422
      ],
      "min": [
        -0.9927823543548584,
        -0.9924908876419067,
        -1.0
      ],
      "type": "VEC3"
    },
    {
      "bufferView": 3,
      "byteOffset": 27408,
      "componentType": 5126,
      "count": 20,
      "max": [
        1.0,
        1.0,
        1.1356954487951043e-08,
        1.0
      ],
      "min": [
        -1.0,
        -1.0,
        -1.0819928064620399e-08,
        1.0
      ],
      "type": "VEC4"
    },
    {
      "bufferView": 1,
      "byteOffset": 13704,
      "componentType": 5126,
      "count": 20,
      "max": [
        0.6404277086257935,
        0.9960178732872009
      ],
      "min": [
        0.2467689961194992,
        0.5671457052230835
      ],
      "type": "VEC2"
    },
    {
      "bufferView": 0,
      "byteOffset": 23160,
      "componentType": 5125,
      "count": 30,
      "type": "SCALAR"
    },
    {
      "bufferView": 2,
      "byteOffset": 41592,
      "componentType": 5126,
      "count": 2744,
      "max": [
        25.540576934814453,
        25.540616989135742,
        399.89886474609375
      ],
      "min": [
        -25.540645599365234,
        -25.54062843322754,
        0.0
      ],
      "type": "VEC3"
    },
    {
      "bufferView": 2,
      "byteOffset": 74520,
      "componentType": 5126,
      "count": 2744,
      "max": [
        1.0,
        1.0,
        1.0
      ],
      "min": [
        -1.0,
        -1.0,
        -0.979499101638794
      ],
      "type": "VEC3"
    },
    {
      "bufferView": 3,
      "byteOffset": 27728,
      "componentType": 5126,
      "count": 2744,
      "max": [
        1.0,
        1.0,
        0.9999229311943054,
        1.0
      ],
      "min": [
        -1.0,
        -1.0,
        -0.9860633015632629,
        1.0
      ],
      "type": "VEC4"
    },
    {
      "bufferView": 1,
      "byteOffset": 13864,
      "componentType": 5126,
      "count": 2744,
      "max": [
        0.9968310594558716,
        0.998655378818512
      ],
      "min": [
        0.0006959754973649979,
        0.0007438356988132
      ],
      "type": "VEC2"
    },
    {
      "bufferView": 0,
      "byteOffset": 23280,
      "componentType": 5125,
      "count": 14160,
      "type": "SCALAR"
    }
  ],
  "asset": {
    "extras": {
      "author": "Sim387 (https://sketchfab.com/350rdlc.sl)",
      "license": "CC-BY-4.0 (http://creativecommons.org/licenses/by/4.0/)",
      "source": "https://sketchfab.com/3d-models/street-lamp-54bb278c862f46769ca3e624e2fc2727",
      "title": "Street Lamp"
    },
    "generator": "Sketchfab-14.15.0",
    "version": "2.0"
  },
  "bufferViews": [
    {
      "buffer": 0,
      "byteLength": 79920,
      "name": "floatBufferViews",
      "target": 34963
    },
    {
      "buffer": 0,
      "byteLength": 35816,
      "byteOffset": 79920,
      "byteStride": 8,
      "name": "floatBufferViews",
      "target": 34962
    },
    {
      "buffer": 0,
      "byteLength": 107448,
      "byteOffset": 115736,
      "byteStride": 12,
      "name": "floatBufferViews",
      "target": 34962
    },
    {
      "buffer": 0,
      "byteLength": 71632,
      "byteOffset": 223184,
      "byteStride": 16,
      "name": "floatBufferViews",
      "target": 34962
    }
  ],
  "buffers": [
    {
      "byteLength": 294816,
      "uri": "scene.bin"
    }
  ],
  "images": [
    {
      "uri": "textures/01_-_Default_baseColor.png"
    },
    {
      "uri": "textures/01_-_Default_metallicRoughness.png"
    },
    {
      "uri": "textures/01_-_Default_normal.png"
    }
  ],
  "materials": [
    {
      "alphaMode": "BLEND",
      "doubleSided": true,
      "name": "01_-_Default",
      "normalTexture": {
        "index": 2
      },
      "occlusionTexture": {
        "index": 1
      },
      "pbrMetallicRoughness": {
        "baseColorTexture": {
          "index": 0
        },
        "metallicRoughnessTexture": {
          "index": 1
        }
      }
    }
  ],
  "meshes": [
    {
      "name": "Box029_01 - Default_0",
      "primitives": [
        {
          "attributes": {
            "NORMAL": 1,
            "POSITION": 0,
            "TANGENT": 2,
            "TEXCOORD_0": 3
          },
          "indices": 4,
          "material": 0,
          "mode": 4
        }
      ]
    },
    {
      "name": "Box030_01 - Default_0",
      "primitives": [
        {
          "attributes": {
            "NORMAL": 6,
            "POSITION": 5,
            "TANGENT": 7,
            "TEXCOORD_0": 8
          },
          "indices": 9,
          "material": 0,
          "mode": 4
        }
      ]
    },
    {
      "name": "Cylinder003_01 - Default_0",
      "primitives": [
        {
          "attributes": {
            "NORMAL": 11,
            "POSITION": 10,
            "TANGENT": 12,
            "TEXCOORD_0": 13
          },
          "indices": 14,
          "material": 0,
          "mode": 4
        }
      ]
    },
    {
      "name": "Plane007_01 - Default_0",
      "primitives": [
        {
          "attributes": {
            "NORMAL": 16,
            "POSITION": 15,
            "TANGENT": 17,
            "TEXCOORD_0": 18
          },
          "indices": 19,
          "material": 0,
          "mode": 4
        }
      ]
    },
    {
      "name": "Box031_01 - Default_0",
      "primitives": [
        {
          "attributes": {
            "NORMAL": 21,
            "POSITION": 20,
            "TANGENT": 22,
            "TEXCOORD_0": 23
          },
          "indices": 24,
          "material": 0,
          "mode": 4
        }
      ]
    },
    {
      "name": "Cylinder004_01 - Default_0",
      "primitives": [
        {
          "attributes": {
            "NORMAL": 26,
            "POSITION": 25,
            "TANGENT": 27,
            "TEXCOORD_0": 28
          },
          "indices": 29,
          "material": 0,
          "mode": 4
        }
      ]
    }
  ],
  "nodes": [
    {
      "children": [
        1
      ],
      "matrix": [
        1.0,
        0.0,
        0.0,
        0.0,
        0.0,
        2.220446049250313e-16,
        -1.0,
        0.0,
        0.0,
        1.0,
        2.220446049250313e-16,
        0.0,
        0.0,
        0.0,
        0.0,
        1.0
      ],
      "name": "Sketchfab_model"
    },
    {
      "children": [
        2
      ],
      "matrix": [
        0.009999999776482582,
        0.0,
        0.0,
        0.0,
        0.0,
        0.0,
        0.009999999776482582,
        0.0,
        0.0,
        -0.009999999776482582,
        0.0,
        0.0,
        0.0,
        0.0,
        0.0,
        1.0
      ],
      "name": "StreetLamp.fbx"
    },
    {
      "children": [
        3,
        6,
        9,
        12,
        15,
        18
      ],
      "name": "RootNode"
    },
    {
      "children": [
        4
      ],
      "matrix": [
        0.6828730106353756,
        -2.0351199836455956e-08,
        -2.259437260933202e-24,
        0.0,
        -2.259437260933202e-24,
        0.0,
        -0.682873010635376,
        0.0,
        2.0351199836455956e-08,
        0.6828730106353756,
        0.0,
        0.0,
        0.0,
        399.98883056640625,
        7.266489319590619e-06,
        1.0
      ],
      "name": "Box029"
    },
    {
      "children": [
        5
      ],
      "matrix": [
        6.123233995736755e-17,
        -0.9999999999999982,
        -5.960464547114396e-08,
        0.0,
        -1.3315805452146108e-07,
        -5.960464547114345e-08,
        0.9999999999999893,
        0.0,
        -0.9999999999999911,
        7.875606291421579e-15,
        -1.3315805452146084e-07,
        0.0,
        10.000001907348633,
        -0.009241104125976563,
        9.92156982421875,
        1.0
      ],
      "name": "Object_4"
    },
    {
      "mesh": 0,
      "name": "Box029_01 - Default_0"
    },
    {
      "children": [
        7
      ],
      "matrix": [
        0.5456219911575317,
        0.0,
        0.0,
        0.0,
        0.0,
        1.2115241946498306e-16,
        -0.5456219911575317,
        0.0,
        0.0,
        0.5456219911575317,
        1.2115241946498306e-16,
        0.0,
        6.793792550752187e-08,
        400.0,
        1.7425420082872733e-05,
        1.0
      ],
      "name": "Box030"
    },
    {
      "children": [
        8
      ],
      "matrix": [
        1.0,
        0.0,
        -0.0,
        0.0,
        0.0,
        1.0,
        0.0,
        0.0,
        0.0,
        0.0,
        1.0,
        0.0,
        0.0,
        -2.0626378045562888e-06,
        47.18764877319336,
        1.0
      ],
      "name": "Object_7"
    },
    {
      "mesh": 1,
      "name": "Box030_01 - Default_0"
    },
    {
      "children": [
        10
      ],
      "matrix": [
        0.5456219911575317,
        0.0,
        0.0,
        0.0,
        0.0,
        1.2115241946498306e-16,
        -0.5456219911575317,
        0.0,
        0.0,
        0.5456219911575317,
        1.2115241946498306e-16,
        0.0,
        1.4561699401838268e-08,
        400.0,
        -5.7182069213013165e-06,
        1.0
      ],
      "name": "Cylinder003"
    },
    {
      "children": [
        11
      ],
      "matrix": [
        1.0,
        0.0,
        -0.0,
        0.0,
        0.0,
        1.0,
        0.0,
        0.0,
        0.0,
        0.0,
        1.0,
        0.0,
        0.0,
        -7.156621450121747e-06,
        163.7244110107422,
        1.0
      ],
      "name": "Object_10"
    },
    {
      "mesh": 2,
      "name": "Cylinder003_01 - Default_0"
    },
    {
      "children": [
        13
      ],
      "matrix": [
        2.2026596298405727e-07,
        -1.9852341318717565e-17,
        -0.35762798786156547,
        0.0,
        -0.35762798786156547,
        0.0,
        -2.2026596300390963e-07,
        0.0,
        1.9852341318717565e-17,
        0.3576279878616333,
        0.0,
        0.0,
        0.0,
        400.0,
        -8.57002248721983e-07,
        1.0
      ],
      "name": "Plane007"
    },
    {
      "children": [
        14
      ],
      "matrix": [
        -1.0,
        -1.2246467991473532e-16,
        0.0,
        0.0,
        1.2246467991473532e-16,
        -1.0,
        0.0,
        0.0,
        0.0,
        0.0,
        1.0,
        0.0,
        -14.776949882507324,
        -31.672021865844727,
        40.01652526855469,
        1.0
      ],
      "name": "Object_13"
    },
    {
      "mesh": 3,
      "name": "Plane007_01 - Default_0"
    },
    {
      "children": [
        16
      ],
      "matrix": [
        0.682873010635376,
        0.0,
        0.0,
        0.0,
        0.0,
        1.5162826786049876e-16,
        -0.682873010635376,
        0.0,
        0.0,
        0.682873010635376,
        1.5162826786049876e-16,
        0.0,
        -0.654637336730957,
        400.0,
        1.7404556274414063e-05,
        1.0
      ],
      "name": "Box031"
    },
    {
      "children": [
        17
      ],
      "matrix": [
        1.0,
        0.0,
        -0.0,
        0.0,
        0.0,
        1.0,
        0.0,
        0.0,
        0.0,
        0.0,
        1.0,
        0.0,
        -2.8614387304060074e-08,
        -0.6546218395233154,
        22.2244873046875,
        1.0
      ],
      "name": "Object_16"
    },
    {
      "mesh": 4,
      "name": "Box031_01 - Default_0"
    },
    {
      "children": [
        19
      ],
      "matrix": [
        1.0,
        0.0,
        0.0,
        0.0,
        0.0,
        2.220446049250313e-16,
        -1.0,
        0.0,
        0.0,
        1.0,
        2.220446049250313e-16,
        0.0,
        0.0,
        0.0,
        0.0,
        1.0
      ],
      "name": "Cylinder004"
    },
    {
      "mesh": 5,
      "name": "Cylinder004_01 - Default_0"
    }
  ],
  "samplers": [
    {
      "magFilter": 9729,
      "minFilter": 9987,
      "wrapS": 10497,
      "wrapT": 10497
    }
  ],
  "scene": 0,
  "scenes": [
    {
      "name": "Sketchfab_Scene",
      "nodes": [
        0
      ]
    }
  ],
  "textures": [
    {
      "sampler": 0,
      "source": 0
    },
    {
      "sampler": 0,
      "source": 1
    },
    {
      "sampler": 0,
      "source": 2
    }
  ]
}
